<svg xmlns="http://www.w3.org/2000/svg" viewBox="55 30 740 305" font-family="Inter, Helvetica, Arial, sans-serif" font-size="13">
  <defs>
    <pattern id="hatch-a" patternUnits="userSpaceOnUse" width="6" height="6" patternTransform="rotate(45)">
      <line x1="0" y1="0" x2="0" y2="6" stroke="#4a86c8" stroke-width="0.8" stroke-opacity="0.3"/>
    </pattern>
    <pattern id="hatch-b" patternUnits="userSpaceOnUse" width="6" height="6" patternTransform="rotate(45)">
      <line x1="0" y1="0" x2="0" y2="6" stroke="#28a745" stroke-width="0.8" stroke-opacity="0.3"/>
    </pattern>
  </defs>

  <!-- Matrix A (M x K) -->
  <rect x="80" y="60" width="160" height="200" rx="3" fill="#e8f0fe" stroke="#4a86c8" stroke-width="1.5"/>
  <text x="160" y="48" text-anchor="middle" font-weight="600" fill="#333">A (M, K)</text>
  <!-- A: dashed row showing the full slice -->
  <rect x="80" y="60" width="160" height="50" rx="2" fill="url(#hatch-a)" stroke="#4a86c8" stroke-width="1" stroke-dasharray="5,3"/>
  <!-- A: highlighted tile -->
  <rect x="80" y="60" width="45" height="50" rx="2" fill="#fce4b8" stroke="#e8a020" stroke-width="2"/>
  <!-- A: block_m label (left of tile) -->
  <text x="75" y="90" text-anchor="end" font-size="11" fill="#8a5d00">block_m</text>
  <!-- A: block_k label (top of tile) -->
  <text x="102" y="55" text-anchor="middle" font-size="11" fill="#8a5d00">block_k</text>
  <!-- A dimension labels -->
  <text x="69" y="165" text-anchor="middle" font-size="12" fill="#666" transform="rotate(-90,69,165)">M</text>
  <text x="160" y="275" text-anchor="middle" font-size="12" fill="#666">K</text>

  <!-- Matrix B^T (K x N) -->
  <rect x="310" y="60" width="200" height="150" rx="3" fill="#e8f0fe" stroke="#4a86c8" stroke-width="1.5"/>
  <text x="410" y="48" text-anchor="middle" font-weight="600" fill="#333">B<tspan font-size="10" baseline-shift="super">T</tspan> (K, N)</text>
  <!-- B^T: dashed column showing full slice -->
  <rect x="310" y="60" width="50" height="150" rx="2" fill="url(#hatch-b)" stroke="#28a745" stroke-width="1" stroke-dasharray="5,3"/>
  <!-- B^T: highlighted tile -->
  <rect x="310" y="60" width="50" height="45" rx="2" fill="#d4edda" stroke="#28a745" stroke-width="2"/>
  <!-- B^T: block_k label (left of tile) -->
  <text x="305" y="87" text-anchor="end" font-size="11" fill="#155724">block_k</text>
  <!-- B^T: block_n label (top of tile) -->
  <text x="335" y="55" text-anchor="middle" font-size="11" fill="#155724">block_n</text>
  <!-- B^T dimension labels -->
  <text x="299" y="140" text-anchor="middle" font-size="12" fill="#666" transform="rotate(-90,299,140)">K</text>
  <text x="410" y="225" text-anchor="middle" font-size="12" fill="#666">N</text>

  <!-- Matrix C (M x N) -->
  <rect x="580" y="60" width="200" height="200" rx="3" fill="#e8f0fe" stroke="#4a86c8" stroke-width="1.5"/>
  <text x="680" y="48" text-anchor="middle" font-weight="600" fill="#333">C (M, N)</text>
  <!-- C grid lines -->
  <line x1="630" y1="60" x2="630" y2="260" stroke="#4a86c8" stroke-width="0.5" stroke-dasharray="3,3"/>
  <line x1="680" y1="60" x2="680" y2="260" stroke="#4a86c8" stroke-width="0.5" stroke-dasharray="3,3"/>
  <line x1="730" y1="60" x2="730" y2="260" stroke="#4a86c8" stroke-width="0.5" stroke-dasharray="3,3"/>
  <line x1="580" y1="110" x2="780" y2="110" stroke="#4a86c8" stroke-width="0.5" stroke-dasharray="3,3"/>
  <line x1="580" y1="160" x2="780" y2="160" stroke="#4a86c8" stroke-width="0.5" stroke-dasharray="3,3"/>
  <line x1="580" y1="210" x2="780" y2="210" stroke="#4a86c8" stroke-width="0.5" stroke-dasharray="3,3"/>
  <!-- C: highlighted tile -->
  <rect x="580" y="60" width="50" height="50" rx="2" fill="#f8d7da" stroke="#dc3545" stroke-width="2"/>
  <!-- C: block_m label (left of tile) -->
  <text x="575" y="90" text-anchor="end" font-size="11" fill="#721c24">block_m</text>
  <!-- C: block_n label (top of tile) -->
  <text x="605" y="55" text-anchor="middle" font-size="11" fill="#721c24">block_n</text>
  <!-- C dimension labels -->
  <text x="569" y="165" text-anchor="middle" font-size="12" fill="#666" transform="rotate(-90,569,165)">M</text>
  <text x="680" y="275" text-anchor="middle" font-size="12" fill="#666">N</text>

  <!-- Annotation: each thread block computes one tile -->
  <rect x="580" y="295" width="200" height="28" rx="4" fill="#fff3cd" stroke="#ffc107" stroke-width="1"/>
  <text x="680" y="314" text-anchor="middle" font-size="11" fill="#856404">Each thread block computes one tile</text>
  <line x1="625" y1="295" x2="610" y2="115" stroke="#ffc107" stroke-width="1" stroke-dasharray="4,3"/>

  <!-- Centered equation at bottom -->
  <text x="410" y="320" text-anchor="middle" font-size="15" font-weight="600" fill="#555">A  x  B<tspan font-size="10" baseline-shift="super">T</tspan>  =  C</text>
</svg>
