<svg xmlns="http://www.w3.org/2000/svg" viewBox="0 0 760 380" font-family="Inter, Helvetica, Arial, sans-serif" font-size="13">

  <!-- ===== Left: Column-major, wave=16, 8x8 grid ===== -->
  <text x="175" y="16" text-anchor="middle" font-weight="700" font-size="13" fill="#333">Column-major (wave = 16 blocks)</text>

  <!-- Active column indicators (top) - cols 0,1 active -->
  <rect x="52" y="24" width="28" height="8" rx="2" fill="#4a86c8"/>
  <rect x="80" y="24" width="28" height="8" rx="2" fill="#4a86c8"/>
  <rect x="108" y="24" width="28" height="8" rx="2" fill="#e0e0e0"/>
  <rect x="136" y="24" width="28" height="8" rx="2" fill="#e0e0e0"/>
  <rect x="164" y="24" width="28" height="8" rx="2" fill="#e0e0e0"/>
  <rect x="192" y="24" width="28" height="8" rx="2" fill="#e0e0e0"/>
  <rect x="220" y="24" width="28" height="8" rx="2" fill="#e0e0e0"/>
  <rect x="248" y="24" width="28" height="8" rx="2" fill="#e0e0e0"/>

  <!-- Active row indicators (left) - all 8 rows active -->
  <rect x="42" y="36" width="8" height="24" rx="2" fill="#e65100"/>
  <rect x="42" y="60" width="8" height="24" rx="2" fill="#e65100"/>
  <rect x="42" y="84" width="8" height="24" rx="2" fill="#e65100"/>
  <rect x="42" y="108" width="8" height="24" rx="2" fill="#e65100"/>
  <rect x="42" y="132" width="8" height="24" rx="2" fill="#e65100"/>
  <rect x="42" y="156" width="8" height="24" rx="2" fill="#e65100"/>
  <rect x="42" y="180" width="8" height="24" rx="2" fill="#e65100"/>
  <rect x="42" y="204" width="8" height="24" rx="2" fill="#e65100"/>

  <!-- 8x8 grid, cell=28x24 -->
  <!-- Col 0: active tiles 0-7 -->
  <rect x="52" y="36" width="28" height="24" fill="#bbdefb" stroke="#64b5f6" stroke-width="1"/>
  <text x="66" y="52" text-anchor="middle" font-size="9" fill="#1565c0" font-weight="600">0</text>
  <rect x="52" y="60" width="28" height="24" fill="#bbdefb" stroke="#64b5f6" stroke-width="1"/>
  <text x="66" y="76" text-anchor="middle" font-size="9" fill="#1565c0" font-weight="600">1</text>
  <rect x="52" y="84" width="28" height="24" fill="#bbdefb" stroke="#64b5f6" stroke-width="1"/>
  <text x="66" y="100" text-anchor="middle" font-size="9" fill="#1565c0" font-weight="600">2</text>
  <rect x="52" y="108" width="28" height="24" fill="#bbdefb" stroke="#64b5f6" stroke-width="1"/>
  <text x="66" y="124" text-anchor="middle" font-size="9" fill="#1565c0" font-weight="600">3</text>
  <rect x="52" y="132" width="28" height="24" fill="#bbdefb" stroke="#64b5f6" stroke-width="1"/>
  <text x="66" y="148" text-anchor="middle" font-size="9" fill="#1565c0" font-weight="600">4</text>
  <rect x="52" y="156" width="28" height="24" fill="#bbdefb" stroke="#64b5f6" stroke-width="1"/>
  <text x="66" y="172" text-anchor="middle" font-size="9" fill="#1565c0" font-weight="600">5</text>
  <rect x="52" y="180" width="28" height="24" fill="#bbdefb" stroke="#64b5f6" stroke-width="1"/>
  <text x="66" y="196" text-anchor="middle" font-size="9" fill="#1565c0" font-weight="600">6</text>
  <rect x="52" y="204" width="28" height="24" fill="#bbdefb" stroke="#64b5f6" stroke-width="1"/>
  <text x="66" y="220" text-anchor="middle" font-size="9" fill="#1565c0" font-weight="600">7</text>
  <!-- Col 1: active tiles 8-15 -->
  <rect x="80" y="36" width="28" height="24" fill="#bbdefb" stroke="#64b5f6" stroke-width="1"/>
  <text x="94" y="52" text-anchor="middle" font-size="9" fill="#1565c0" font-weight="600">8</text>
  <rect x="80" y="60" width="28" height="24" fill="#bbdefb" stroke="#64b5f6" stroke-width="1"/>
  <text x="94" y="76" text-anchor="middle" font-size="9" fill="#1565c0" font-weight="600">9</text>
  <rect x="80" y="84" width="28" height="24" fill="#bbdefb" stroke="#64b5f6" stroke-width="1"/>
  <text x="94" y="100" text-anchor="middle" font-size="9" fill="#1565c0" font-weight="600">10</text>
  <rect x="80" y="108" width="28" height="24" fill="#bbdefb" stroke="#64b5f6" stroke-width="1"/>
  <text x="94" y="124" text-anchor="middle" font-size="9" fill="#1565c0" font-weight="600">11</text>
  <rect x="80" y="132" width="28" height="24" fill="#bbdefb" stroke="#64b5f6" stroke-width="1"/>
  <text x="94" y="148" text-anchor="middle" font-size="9" fill="#1565c0" font-weight="600">12</text>
  <rect x="80" y="156" width="28" height="24" fill="#bbdefb" stroke="#64b5f6" stroke-width="1"/>
  <text x="94" y="172" text-anchor="middle" font-size="9" fill="#1565c0" font-weight="600">13</text>
  <rect x="80" y="180" width="28" height="24" fill="#bbdefb" stroke="#64b5f6" stroke-width="1"/>
  <text x="94" y="196" text-anchor="middle" font-size="9" fill="#1565c0" font-weight="600">14</text>
  <rect x="80" y="204" width="28" height="24" fill="#bbdefb" stroke="#64b5f6" stroke-width="1"/>
  <text x="94" y="220" text-anchor="middle" font-size="9" fill="#1565c0" font-weight="600">15</text>
  <!-- Cols 2-7: inactive -->
  <rect x="108" y="36" width="28" height="192" fill="#f5f5f5" stroke="#e0e0e0" stroke-width="0.5"/>
  <rect x="136" y="36" width="28" height="192" fill="#f5f5f5" stroke="#e0e0e0" stroke-width="0.5"/>
  <rect x="164" y="36" width="28" height="192" fill="#f5f5f5" stroke="#e0e0e0" stroke-width="0.5"/>
  <rect x="192" y="36" width="28" height="192" fill="#f5f5f5" stroke="#e0e0e0" stroke-width="0.5"/>
  <rect x="220" y="36" width="28" height="192" fill="#f5f5f5" stroke="#e0e0e0" stroke-width="0.5"/>
  <rect x="248" y="36" width="28" height="192" fill="#f5f5f5" stroke="#e0e0e0" stroke-width="0.5"/>
  <!-- Grid lines for inactive -->
  <line x1="108" y1="60" x2="276" y2="60" stroke="#e0e0e0" stroke-width="0.5"/>
  <line x1="108" y1="84" x2="276" y2="84" stroke="#e0e0e0" stroke-width="0.5"/>
  <line x1="108" y1="108" x2="276" y2="108" stroke="#e0e0e0" stroke-width="0.5"/>
  <line x1="108" y1="132" x2="276" y2="132" stroke="#e0e0e0" stroke-width="0.5"/>
  <line x1="108" y1="156" x2="276" y2="156" stroke="#e0e0e0" stroke-width="0.5"/>
  <line x1="108" y1="180" x2="276" y2="180" stroke="#e0e0e0" stroke-width="0.5"/>
  <line x1="108" y1="204" x2="276" y2="204" stroke="#e0e0e0" stroke-width="0.5"/>

  <!-- Summary -->
  <text x="175" y="246" text-anchor="middle" font-size="11" fill="#333">Active: <tspan fill="#e65100" font-weight="600">8 A rows</tspan> + <tspan fill="#4a86c8" font-weight="600">2 B cols</tspan> = <tspan font-weight="700">10 tiles</tspan></text>


  <!-- ===== Right: Swizzled S=4, wave=16, 8x8 grid ===== -->
  <text x="565" y="16" text-anchor="middle" font-weight="700" font-size="13" fill="#333">Swizzled, S=4 (wave = 16 blocks)</text>

  <!-- Active column indicators (top) - cols 0-3 active -->
  <rect x="442" y="24" width="28" height="8" rx="2" fill="#4a86c8"/>
  <rect x="470" y="24" width="28" height="8" rx="2" fill="#4a86c8"/>
  <rect x="498" y="24" width="28" height="8" rx="2" fill="#4a86c8"/>
  <rect x="526" y="24" width="28" height="8" rx="2" fill="#4a86c8"/>
  <rect x="554" y="24" width="28" height="8" rx="2" fill="#e0e0e0"/>
  <rect x="582" y="24" width="28" height="8" rx="2" fill="#e0e0e0"/>
  <rect x="610" y="24" width="28" height="8" rx="2" fill="#e0e0e0"/>
  <rect x="638" y="24" width="28" height="8" rx="2" fill="#e0e0e0"/>

  <!-- Active row indicators (left) - rows 0-3 active -->
  <rect x="432" y="36" width="8" height="24" rx="2" fill="#e65100"/>
  <rect x="432" y="60" width="8" height="24" rx="2" fill="#e65100"/>
  <rect x="432" y="84" width="8" height="24" rx="2" fill="#e65100"/>
  <rect x="432" y="108" width="8" height="24" rx="2" fill="#e65100"/>
  <rect x="432" y="132" width="8" height="24" rx="2" fill="#e0e0e0"/>
  <rect x="432" y="156" width="8" height="24" rx="2" fill="#e0e0e0"/>
  <rect x="432" y="180" width="8" height="24" rx="2" fill="#e0e0e0"/>
  <rect x="432" y="204" width="8" height="24" rx="2" fill="#e0e0e0"/>

  <!-- Active tiles: rows 0-3, cols 0-3 (16 tiles) -->
  <!-- Row 0 -->
  <rect x="442" y="36" width="28" height="24" fill="#bbdefb" stroke="#64b5f6" stroke-width="1"/>
  <text x="456" y="52" text-anchor="middle" font-size="9" fill="#1565c0" font-weight="600">0</text>
  <rect x="470" y="36" width="28" height="24" fill="#bbdefb" stroke="#64b5f6" stroke-width="1"/>
  <text x="484" y="52" text-anchor="middle" font-size="9" fill="#1565c0" font-weight="600">1</text>
  <rect x="498" y="36" width="28" height="24" fill="#bbdefb" stroke="#64b5f6" stroke-width="1"/>
  <text x="512" y="52" text-anchor="middle" font-size="9" fill="#1565c0" font-weight="600">2</text>
  <rect x="526" y="36" width="28" height="24" fill="#bbdefb" stroke="#64b5f6" stroke-width="1"/>
  <text x="540" y="52" text-anchor="middle" font-size="9" fill="#1565c0" font-weight="600">3</text>
  <!-- Row 1 -->
  <rect x="442" y="60" width="28" height="24" fill="#bbdefb" stroke="#64b5f6" stroke-width="1"/>
  <text x="456" y="76" text-anchor="middle" font-size="9" fill="#1565c0" font-weight="600">4</text>
  <rect x="470" y="60" width="28" height="24" fill="#bbdefb" stroke="#64b5f6" stroke-width="1"/>
  <text x="484" y="76" text-anchor="middle" font-size="9" fill="#1565c0" font-weight="600">5</text>
  <rect x="498" y="60" width="28" height="24" fill="#bbdefb" stroke="#64b5f6" stroke-width="1"/>
  <text x="512" y="76" text-anchor="middle" font-size="9" fill="#1565c0" font-weight="600">6</text>
  <rect x="526" y="60" width="28" height="24" fill="#bbdefb" stroke="#64b5f6" stroke-width="1"/>
  <text x="540" y="76" text-anchor="middle" font-size="9" fill="#1565c0" font-weight="600">7</text>
  <!-- Row 2 -->
  <rect x="442" y="84" width="28" height="24" fill="#bbdefb" stroke="#64b5f6" stroke-width="1"/>
  <text x="456" y="100" text-anchor="middle" font-size="9" fill="#1565c0" font-weight="600">8</text>
  <rect x="470" y="84" width="28" height="24" fill="#bbdefb" stroke="#64b5f6" stroke-width="1"/>
  <text x="484" y="100" text-anchor="middle" font-size="9" fill="#1565c0" font-weight="600">9</text>
  <rect x="498" y="84" width="28" height="24" fill="#bbdefb" stroke="#64b5f6" stroke-width="1"/>
  <text x="512" y="100" text-anchor="middle" font-size="9" fill="#1565c0" font-weight="600">10</text>
  <rect x="526" y="84" width="28" height="24" fill="#bbdefb" stroke="#64b5f6" stroke-width="1"/>
  <text x="540" y="100" text-anchor="middle" font-size="9" fill="#1565c0" font-weight="600">11</text>
  <!-- Row 3 -->
  <rect x="442" y="108" width="28" height="24" fill="#bbdefb" stroke="#64b5f6" stroke-width="1"/>
  <text x="456" y="124" text-anchor="middle" font-size="9" fill="#1565c0" font-weight="600">12</text>
  <rect x="470" y="108" width="28" height="24" fill="#bbdefb" stroke="#64b5f6" stroke-width="1"/>
  <text x="484" y="124" text-anchor="middle" font-size="9" fill="#1565c0" font-weight="600">13</text>
  <rect x="498" y="108" width="28" height="24" fill="#bbdefb" stroke="#64b5f6" stroke-width="1"/>
  <text x="512" y="124" text-anchor="middle" font-size="9" fill="#1565c0" font-weight="600">14</text>
  <rect x="526" y="108" width="28" height="24" fill="#bbdefb" stroke="#64b5f6" stroke-width="1"/>
  <text x="540" y="124" text-anchor="middle" font-size="9" fill="#1565c0" font-weight="600">15</text>

  <!-- Inactive rows 4-7, cols 0-3 -->
  <rect x="442" y="132" width="112" height="96" fill="#f5f5f5" stroke="#e0e0e0" stroke-width="0.5"/>
  <line x1="442" y1="156" x2="554" y2="156" stroke="#e0e0e0" stroke-width="0.5"/>
  <line x1="442" y1="180" x2="554" y2="180" stroke="#e0e0e0" stroke-width="0.5"/>
  <line x1="442" y1="204" x2="554" y2="204" stroke="#e0e0e0" stroke-width="0.5"/>
  <line x1="470" y1="132" x2="470" y2="228" stroke="#e0e0e0" stroke-width="0.5"/>
  <line x1="498" y1="132" x2="498" y2="228" stroke="#e0e0e0" stroke-width="0.5"/>
  <line x1="526" y1="132" x2="526" y2="228" stroke="#e0e0e0" stroke-width="0.5"/>

  <!-- Inactive cols 4-7 (all rows) -->
  <rect x="554" y="36" width="112" height="192" fill="#f5f5f5" stroke="#e0e0e0" stroke-width="0.5"/>
  <line x1="554" y1="60" x2="666" y2="60" stroke="#e0e0e0" stroke-width="0.5"/>
  <line x1="554" y1="84" x2="666" y2="84" stroke="#e0e0e0" stroke-width="0.5"/>
  <line x1="554" y1="108" x2="666" y2="108" stroke="#e0e0e0" stroke-width="0.5"/>
  <line x1="554" y1="132" x2="666" y2="132" stroke="#e0e0e0" stroke-width="0.5"/>
  <line x1="554" y1="156" x2="666" y2="156" stroke="#e0e0e0" stroke-width="0.5"/>
  <line x1="554" y1="180" x2="666" y2="180" stroke="#e0e0e0" stroke-width="0.5"/>
  <line x1="554" y1="204" x2="666" y2="204" stroke="#e0e0e0" stroke-width="0.5"/>
  <line x1="582" y1="36" x2="582" y2="228" stroke="#e0e0e0" stroke-width="0.5"/>
  <line x1="610" y1="36" x2="610" y2="228" stroke="#e0e0e0" stroke-width="0.5"/>
  <line x1="638" y1="36" x2="638" y2="228" stroke="#e0e0e0" stroke-width="0.5"/>

  <!-- Summary -->
  <text x="555" y="246" text-anchor="middle" font-size="11" fill="#333">Active: <tspan fill="#e65100" font-weight="600">4 A rows</tspan> + <tspan fill="#4a86c8" font-weight="600">4 B cols</tspan> = <tspan font-weight="700">8 tiles</tspan></text>

  <!-- ===== Legend ===== -->
  <line x1="25" y1="270" x2="735" y2="270" stroke="#ccc" stroke-width="1" stroke-dasharray="6,4"/>

  <text x="380" y="292" text-anchor="middle" font-weight="600" font-size="12" fill="#333">Legend</text>

  <rect x="80" y="302" width="20" height="16" fill="#bbdefb" stroke="#64b5f6" stroke-width="1"/>
  <text x="108" y="314" font-size="10" fill="#333">= active tile (one thread block)</text>

  <rect x="80" y="324" width="20" height="16" fill="#f5f5f5" stroke="#e0e0e0" stroke-width="0.5"/>
  <text x="108" y="336" font-size="10" fill="#333">= inactive tile</text>

  <rect x="430" y="302" width="16" height="10" rx="2" fill="#e65100"/>
  <text x="454" y="312" font-size="10" fill="#333">= active A row (needs A tile in L2)</text>

  <rect x="430" y="322" width="16" height="10" rx="2" fill="#4a86c8"/>
  <text x="454" y="332" font-size="10" fill="#333">= active B col (needs B tile in L2)</text>

  <!-- Key insight -->
  <text x="380" y="362" text-anchor="middle" font-size="11" fill="#333">
    Same 16 active blocks, but swizzle reduces L2 working set from
    <tspan font-weight="700" fill="#dc3545">10</tspan> to
    <tspan font-weight="700" fill="#28a745">8</tspan> unique A+B tiles
  </text>
</svg>
